<?xml version="1.0" standalone="no"?>
<!DOCTYPE svg PUBLIC "-//W3C//DTD SVG 20010904//EN"
 "http://www.w3.org/TR/2001/REC-SVG-20010904/DTD/svg10.dtd">
<svg version="1.0" xmlns="http://www.w3.org/2000/svg"
 width="300.000000pt" height="302.000000pt" viewBox="0 0 300.000000 302.000000"
 preserveAspectRatio="xMidYMid meet">
<metadata>
Created by potrace 1.10, written by Peter Selinger 2001-2011
</metadata>
<g transform="translate(0.000000,302.000000) scale(0.100000,-0.100000)"
fill="#BC6C7B" stroke="none">
<path d="M1029 2300 c-261 -126 -480 -234 -487 -240 -9 -9 -12 -132 -10 -578
l3 -566 345 -167 c190 -92 408 -197 485 -234 l141 -66 479 231 c264 127 483
236 487 243 4 6 8 262 8 568 0 479 -2 558 -15 569 -13 11 -679 336 -881 430
l-82 38 -473 -228z m509 185 c15 -8 65 -32 112 -54 84 -39 366 -174 653 -314
l147 -71 0 -61 c0 -33 0 -283 1 -555 l1 -495 -53 -28 c-30 -16 -155 -77 -279
-137 -124 -59 -305 -147 -402 -194 -97 -47 -188 -88 -200 -91 -24 -6 -76 17
-453 200 -99 48 -253 123 -343 166 l-162 78 0 93 c-2 462 1 1022 4 1025 7 7
931 452 939 453 5 0 21 -7 35 -15z"/>
<path d="M1385 2418 c-157 -78 -161 -88 -62 -136 69 -34 345 -168 597 -289 91
-44 175 -83 187 -87 16 -5 54 8 138 49 64 32 119 63 122 71 5 14 -22 54 -37
54 -5 0 -102 45 -216 101 -115 56 -254 123 -309 149 -55 26 -144 68 -197 94
-53 25 -103 46 -110 45 -7 0 -58 -23 -113 -51z m572 -188 l402 -193 -119 -58
-120 -58 -82 41 c-136 66 -679 329 -728 351 l-45 21 120 57 c108 52 122 56
145 45 14 -7 206 -100 427 -206z"/>
<path d="M1090 2273 c-110 -56 -107 -62 68 -149 79 -39 202 -99 275 -134 73
-35 201 -97 286 -138 l154 -74 41 18 c74 33 131 70 134 88 3 13 -43 39 -210
120 -117 57 -303 147 -413 201 -110 53 -213 99 -230 101 -21 4 -51 -6 -105
-33z m444 -147 c187 -90 378 -182 423 -204 l82 -40 -82 -39 -82 -40 -175 85
c-96 46 -289 139 -428 205 l-254 122 79 37 c43 20 82 37 87 37 4 1 162 -73
350 -163z"/>
<path d="M910 2187 c-69 -29 -247 -121 -262 -134 -26 -23 -9 -39 87 -83 238
-111 558 -274 543 -277 -18 -4 -36 4 -378 169 -324 157 -289 143 -308 124 -15
-15 -17 -63 -16 -514 1 -491 4 -542 33 -542 8 0 147 -66 650 -311 101 -49 191
-89 201 -89 10 0 21 7 24 16 3 9 6 242 6 519 l0 504 -27 19 c-16 10 -36 22
-45 25 -18 7 -25 27 -9 27 5 0 28 -8 51 -19 49 -22 57 -20 167 37 46 23 89 42
98 42 35 0 9 -20 -83 -63 -54 -25 -104 -53 -112 -62 -10 -12 -13 -101 -15
-423 -3 -489 2 -615 27 -620 14 -3 502 225 783 365 117 59 105 -6 105 573 0
447 -2 509 -16 520 -13 11 -33 4 -129 -43 -63 -31 -119 -57 -123 -57 -5 0 -17
-9 -28 -21 -17 -19 -19 -41 -22 -205 l-4 -185 -115 -55 c-64 -30 -117 -53
-119 -51 -2 1 -6 86 -10 187 -3 102 -9 189 -11 193 -3 5 -87 48 -187 97 -241
116 -380 183 -386 185 -3 0 -71 33 -152 73 -185 91 -187 92 -218 79z m640
-307 l285 -137 3 -191 c2 -176 4 -192 21 -202 15 -8 46 3 150 55 l131 64 0
191 0 190 130 65 c71 36 132 65 135 65 3 0 5 -229 5 -508 l0 -508 -402 -193
c-222 -106 -418 -202 -435 -212 l-33 -18 1 512 0 512 112 55 c115 57 135 78
95 104 -14 9 -40 0 -130 -45 l-113 -56 -52 25 c-43 21 -54 23 -67 13 -30 -25
-19 -49 34 -76 l50 -25 0 -510 0 -510 -22 13 c-13 8 -209 104 -435 212 l-413
199 0 509 c0 280 3 507 8 505 4 -2 32 -16 62 -30 30 -14 176 -85 325 -157 148
-72 277 -131 287 -131 25 0 41 33 25 52 -7 9 -106 61 -222 116 -116 55 -261
125 -322 155 l-113 54 122 59 c67 32 131 64 142 69 17 9 49 -3 186 -69 91 -43
293 -141 450 -216z"/>
<path d="M664 1275 c-12 -31 9 -46 151 -114 142 -68 168 -75 179 -45 11 29 -8
43 -144 108 -141 68 -176 77 -186 51z m209 -89 c53 -25 97 -50 97 -55 0 -6 -3
-11 -7 -11 -9 0 -245 111 -260 123 -28 20 1 26 35 8 20 -11 81 -40 135 -65z"/>
<path d="M670 1135 c-21 -25 -4 -43 84 -87 71 -35 87 -40 100 -29 34 28 19 49
-64 91 -88 44 -102 47 -120 25z m123 -52 c26 -13 47 -28 47 -33 0 -6 -2 -10
-6 -10 -14 0 -144 64 -144 72 0 12 47 -1 103 -29z"/>
<path d="M1978 1800 c-42 -22 -79 -43 -82 -48 -3 -5 -6 -75 -7 -157 -1 -181 1
-186 82 -154 30 12 69 33 87 46 l32 24 0 149 c0 122 -3 151 -16 164 -8 9 -16
16 -17 16 -1 -1 -37 -19 -79 -40z m92 -133 l0 -153 -75 -37 c-42 -20 -78 -37
-80 -37 -3 0 -5 67 -5 150 l0 150 78 39 c42 22 78 40 80 41 1 0 2 -69 2 -153z"/>
</g>
</svg>
