<?xml version="1.0" standalone="no"?>
<!DOCTYPE svg PUBLIC "-//W3C//DTD SVG 20010904//EN"
 "http://www.w3.org/TR/2001/REC-SVG-20010904/DTD/svg10.dtd">
<svg version="1.0" xmlns="http://www.w3.org/2000/svg"
 width="300.000000pt" height="302.000000pt" viewBox="0 0 300.000000 302.000000"
 preserveAspectRatio="xMidYMid meet">
<metadata>
Created by potrace 1.10, written by Peter Selinger 2001-2011
</metadata>
<g transform="translate(0.000000,302.000000) scale(0.100000,-0.100000)"
fill="#BC6C7B" stroke="none">
<path d="M1488 2559 c-16 -9 -18 -26 -18 -128 0 -130 8 -149 55 -137 l25 6 0
125 c0 113 -2 125 -19 135 -23 12 -22 12 -43 -1z m40 -132 c3 -103 2 -107 -18
-107 -20 0 -21 5 -19 103 1 108 4 120 22 114 8 -2 13 -41 15 -110z"/>
<path d="M757 2252 c-25 -28 -22 -38 35 -98 63 -67 82 -78 107 -65 39 21 33
41 -36 112 -36 38 -72 69 -78 69 -7 0 -19 -8 -28 -18z m93 -67 c43 -43 52 -57
42 -67 -10 -10 -24 -1 -67 42 -30 30 -55 60 -55 67 0 26 27 12 80 -42z"/>
<path d="M2164 2208 c-68 -65 -80 -98 -45 -118 11 -5 23 -10 26 -10 16 0 135
125 135 141 0 19 -25 49 -42 49 -5 0 -39 -28 -74 -62z m83 16 c4 -10 -8 -30
-33 -55 -49 -51 -73 -64 -87 -50 -8 8 3 26 43 66 59 59 67 63 77 39z"/>
<path d="M1392 2060 c-289 -30 -545 -152 -753 -361 -145 -145 -160 -208 -78
-315 165 -215 445 -380 739 -435 98 -19 338 -16 443 4 250 50 453 160 638 346
113 114 135 152 126 221 -7 51 -34 90 -63 90 -36 0 -49 -34 -30 -75 23 -49 10
-74 -97 -181 -99 -99 -222 -184 -342 -239 l-75 -34 45 55 c148 181 174 413 70
622 -19 37 -53 87 -76 111 -35 36 -38 42 -18 36 76 -24 240 -121 323 -192 46
-38 56 -40 81 -13 27 29 12 51 -80 121 -234 176 -561 268 -853 239z m367 -44
c41 -10 78 -19 83 -22 5 -3 20 -8 35 -10 14 -3 39 -12 54 -20 16 -8 29 -13 29
-10 0 8 143 -65 200 -102 80 -52 150 -112 150 -128 0 -24 -19 -16 -83 34 -154
118 -337 199 -337 149 0 -6 20 -36 44 -66 86 -111 117 -201 117 -342 -1 -141
-39 -247 -127 -355 -37 -45 -40 -54 -23 -71 11 -11 23 -9 89 21 46 20 169 95
217 131 67 51 185 167 218 215 26 37 27 42 16 86 -13 51 -9 64 17 48 23 -15
35 -80 21 -121 -10 -31 -139 -172 -214 -234 -139 -115 -351 -210 -545 -245
-88 -16 -296 -18 -395 -4 -174 25 -367 103 -514 209 -80 58 -235 209 -257 252
-20 40 -20 98 0 136 22 42 142 163 232 233 139 110 368 205 539 225 27 4 52 9
55 12 11 11 308 -6 379 -21z"/>
<path d="M1440 1998 c-148 -17 -313 -135 -378 -273 -46 -95 -55 -142 -49 -252
6 -118 35 -200 102 -285 189 -241 534 -261 750 -44 103 104 151 220 149 362
-3 218 -139 403 -349 472 -73 24 -140 30 -225 20z m189 -33 c164 -43 292 -165
341 -324 24 -75 26 -192 6 -267 -84 -317 -466 -457 -738 -271 -74 51 -148 144
-178 224 -28 73 -37 201 -20 274 62 262 336 432 589 364z"/>
<path d="M1446 1695 c-22 -8 -51 -22 -65 -32 -33 -24 -81 -117 -81 -156 0
-116 96 -216 208 -217 193 -1 286 245 138 367 -62 51 -129 64 -200 38z m151
-36 c152 -68 122 -302 -43 -337 -124 -27 -224 52 -224 177 0 96 61 167 155
181 45 7 53 5 112 -21z"/>
<path d="M1453 1630 c-61 -27 -85 -70 -80 -144 3 -53 7 -62 39 -92 38 -34 91
-50 133 -40 37 9 92 62 105 101 24 73 -25 164 -98 185 -48 13 -50 13 -99 -10z
m128 -33 c85 -57 61 -189 -38 -216 -105 -29 -189 80 -138 179 31 60 115 78
176 37z"/>
<path d="M1010 1889 c-128 -61 -215 -124 -320 -229 -110 -109 -129 -143 -109
-192 21 -54 213 -236 310 -295 91 -56 190 -103 215 -103 32 0 25 31 -21 92
-81 107 -115 204 -115 330 0 139 34 238 121 354 40 52 46 84 16 84 -7 0 -51
-18 -97 -41z m68 -28 c-152 -168 -176 -439 -58 -646 16 -27 45 -68 65 -89 19
-21 34 -40 33 -42 -7 -7 -204 99 -265 142 -87 60 -240 214 -249 248 -3 14 -3
37 0 50 8 33 155 181 240 242 67 47 267 155 275 148 2 -2 -16 -25 -41 -53z"/>
<path d="M802 847 c-34 -34 -62 -68 -62 -74 0 -16 29 -43 46 -43 17 0 120 94
135 122 13 25 -6 58 -34 58 -14 0 -45 -23 -85 -63z m88 21 c0 -17 -91 -108
-107 -108 -24 0 -13 24 34 72 46 47 73 60 73 36z"/>
<path d="M2112 898 c-7 -7 -12 -19 -12 -28 0 -18 119 -140 137 -140 16 0 43
29 43 46 0 9 -25 42 -57 75 -56 59 -86 72 -111 47z m85 -60 c52 -51 66 -78 41
-78 -20 0 -117 101 -111 116 8 21 13 18 70 -38z"/>
<path d="M1481 696 c-8 -9 -11 -53 -9 -131 3 -99 6 -120 21 -129 12 -8 22 -8
35 0 14 9 17 30 20 129 3 121 -3 145 -38 145 -10 0 -23 -6 -29 -14z m44 -127
c0 -86 -3 -104 -15 -104 -12 0 -16 18 -18 94 -3 102 1 125 21 119 8 -3 12 -34
12 -109z"/>
</g>
</svg>
