<?xml version="1.0" standalone="no"?>
<!DOCTYPE svg PUBLIC "-//W3C//DTD SVG 20010904//EN"
 "http://www.w3.org/TR/2001/REC-SVG-20010904/DTD/svg10.dtd">
<svg version="1.0" xmlns="http://www.w3.org/2000/svg"
 width="300.000000pt" height="302.000000pt" viewBox="0 0 300.000000 302.000000"
 preserveAspectRatio="xMidYMid meet">
<metadata>
Created by potrace 1.10, written by Peter Selinger 2001-2011
</metadata>
<g transform="translate(0.000000,302.000000) scale(0.100000,-0.100000)"
fill="#BC6C7B" stroke="none">
<path d="M612 2260 c-63 -38 -62 -32 -62 -640 0 -611 -1 -602 65 -641 25 -15
35 -28 35 -46 0 -30 56 -89 91 -98 33 -7 1534 -175 1571 -175 17 0 44 7 62 15
63 30 64 31 117 593 27 284 49 543 49 576 0 54 -3 61 -38 96 -32 32 -45 38
-100 45 l-62 7 0 100 c0 110 -11 143 -60 172 -25 14 -106 16 -832 16 -788 0
-804 0 -836 -20z m1680 -38 c27 -31 28 -37 28 -131 0 -112 8 -125 75 -130 22
-2 46 -7 53 -13 6 -6 12 -7 12 -2 0 4 13 -7 29 -25 27 -30 29 -38 26 -95 -6
-110 -16 -228 -31 -381 -9 -82 -18 -175 -20 -205 -24 -285 -47 -488 -60 -507
-8 -13 -28 -30 -45 -39 -34 -17 -57 -16 -304 16 -44 5 -305 35 -580 65 -822
91 -779 82 -801 161 -7 25 -21 45 -40 56 -16 10 -34 25 -41 34 -11 15 -17 497
-14 1076 0 100 15 133 62 146 16 4 388 7 826 6 l796 -1 29 -31z"/>
<path d="M645 2228 c-11 -6 -26 -18 -32 -26 -16 -20 -17 -84 -1 -100 9 -9 209
-12 840 -12 808 0 828 0 838 19 18 35 11 71 -19 102 l-29 29 -789 0 c-551 -1
-794 -4 -808 -12z m1610 -33 c14 -13 25 -36 25 -50 l0 -25 -830 0 -830 0 0 28
c0 32 8 45 35 60 14 8 237 11 798 12 l778 0 24 -25z"/>
<path d="M610 2065 c-15 -18 -14 -213 1 -232 9 -10 83 -13 358 -15 l346 -3
-344 -2 c-303 -3 -347 -5 -363 -20 -17 -15 -18 -40 -18 -358 0 -225 4 -353 11
-374 24 -67 10 -66 654 -69 319 -2 672 0 784 3 l205 7 28 28 28 28 0 364 c0
270 -3 367 -12 376 -9 9 -81 12 -262 12 -137 0 -247 2 -245 5 3 2 115 7 249
10 154 3 248 9 257 16 9 8 13 40 13 109 0 80 -3 100 -18 112 -15 14 -114 16
-838 17 -705 0 -824 -1 -834 -14z m1670 -115 l0 -100 -830 0 -830 0 0 100 0
100 830 0 830 0 0 -100z m-887 -137 c-13 -2 -35 -2 -50 0 -16 2 -5 4 22 4 28
0 40 -2 28 -4z m115 0 c-16 -2 -40 -2 -55 0 -16 2 -3 4 27 4 30 0 43 -2 28 -4z
m180 0 c-26 -2 -71 -2 -100 0 -29 2 -8 3 47 3 55 0 79 -1 53 -3z m79 1 c-3 -3
-12 -4 -19 -1 -8 3 -5 6 6 6 11 1 17 -2 13 -5z m513 -384 l0 -361 -25 -24 -24
-25 -776 0 c-779 0 -805 1 -827 34 -4 6 -8 174 -8 374 l0 362 830 0 830 0 0
-360z"/>
<path d="M686 1635 c-3 -8 -3 -22 0 -30 5 -12 33 -15 164 -15 131 0 159 3 164
15 3 8 3 22 0 30 -5 12 -33 15 -164 15 -131 0 -159 -3 -164 -15z m237 -22
c-40 -2 -106 -2 -145 0 -40 1 -8 3 72 3 80 0 112 -2 73 -3z"/>
<path d="M1084 1635 c-4 -8 -4 -22 0 -30 4 -12 32 -15 159 -15 161 0 185 6
171 44 -5 14 -28 16 -165 16 -133 0 -161 -3 -165 -15z m239 -22 c-40 -2 -106
-2 -145 0 -40 1 -8 3 72 3 80 0 112 -2 73 -3z"/>
<path d="M692 1508 c-16 -16 -15 -23 4 -42 13 -14 49 -16 237 -16 122 0 228 4
235 9 8 4 12 19 10 32 l-3 24 -235 3 c-175 2 -239 -1 -248 -10z m316 -25 c-54
-2 -142 -2 -195 0 -54 1 -10 3 97 3 107 0 151 -2 98 -3z"/>
<path d="M1253 1504 c-12 -33 11 -49 74 -52 70 -3 101 15 83 49 -9 16 -22 19
-81 19 -55 0 -71 -3 -76 -16z m127 -14 c0 -12 -89 -10 -96 2 -3 4 18 8 45 8
28 0 51 -5 51 -10z"/>
<path d="M1584 1507 c-2 -7 -3 -87 -2 -177 l3 -165 295 0 295 0 0 175 0 175
-293 3 c-233 2 -294 0 -298 -11z m566 -112 c3 -55 3 -126 2 -157 l-4 -58 -269
0 -269 0 0 158 0 157 268 0 267 0 5 -100z"/>
<path d="M1636 1464 c-23 -23 -23 -220 0 -253 l16 -23 217 6 c119 3 221 6 228
6 6 0 19 7 27 16 13 12 16 39 16 123 0 92 -3 110 -18 124 -16 15 -48 17 -245
17 -192 0 -228 -2 -241 -16z m474 -126 l0 -118 -230 0 -230 0 0 118 0 117 230
0 230 0 0 -117z"/>
<path d="M2331 1936 c-8 -9 -11 -138 -11 -448 0 -475 2 -461 -60 -493 -25 -13
-134 -15 -788 -15 -831 0 -805 2 -768 -55 34 -52 4 -47 846 -140 25 -3 209
-24 409 -46 387 -43 395 -43 425 3 11 16 25 132 51 403 19 209 42 445 51 525
22 216 20 236 -36 265 -36 19 -104 20 -119 1z m132 -39 c15 -17 18 -32 13 -67
-3 -25 -26 -270 -51 -545 -25 -275 -50 -510 -55 -523 -5 -12 -20 -26 -32 -31
-15 -5 -300 23 -798 80 -426 48 -778 88 -782 89 -10 0 -48 42 -48 52 0 4 347
8 771 8 696 0 774 2 799 16 61 37 60 29 60 514 l0 442 53 -7 c35 -4 58 -14 70
-28z"/>
</g>
</svg>
